<svg id="Layer_6" data-name="Layer 6" xmlns="http://www.w3.org/2000/svg" viewBox="0 0 96 96"><defs><style>.cls-1{fill:#666;}</style></defs><title>StopRecordBtn</title><path class="cls-1" d="M48,59A11,11,0,0,0,59,48V32.38a11,11,0,0,0-22,0V48A11,11,0,0,0,48,59ZM45.19,29h9.37a1.5,1.5,0,0,1,0,3H45.19a1.5,1.5,0,0,1,0-3Zm0,6.58h9.37a1.5,1.5,0,0,1,0,3H45.19a1.5,1.5,0,0,1,0-3Zm0,6.5h9.37a1.5,1.5,0,0,1,0,3H45.19a1.5,1.5,0,0,1,0-3Z"/><path class="cls-1" d="M48,3A45,45,0,1,0,93,48,45,45,0,0,0,48,3ZM34,32.38a14,14,0,0,1,28,0V48a14,14,0,0,1-28,0Zm15.51,37v3.78h5.06a3,3,0,0,1,0,6H41.44a3,3,0,0,1,0-6H46.5V69.34A21.83,21.83,0,0,1,26.19,47.61a1.5,1.5,0,0,1,3,0,18.81,18.81,0,0,0,37.62,0,1.5,1.5,0,0,1,3,0A21.83,21.83,0,0,1,49.5,69.34Z"/></svg>