<svg id="Layer_1" data-name="Layer 1" xmlns="http://www.w3.org/2000/svg" viewBox="0 0 32 32"><defs><style>.cls-1,.cls-3{fill:none;stroke-linecap:round;}.cls-1,.cls-2,.cls-3{stroke:#666;stroke-miterlimit:10;}.cls-1{stroke-width:2px;}.cls-2{fill:#666;}</style></defs><title>Bin</title><path class="cls-1" d="M7,10.1A38.89,38.89,0,0,1,16,9a38.89,38.89,0,0,1,9,1.1"/><path class="cls-1" d="M13.4,7.3A1.32,1.32,0,0,1,14.7,6h2.6a1.32,1.32,0,0,1,1.3,1.3"/><path class="cls-2" d="M19.4,26.5H12.6a2.79,2.79,0,0,1-2.7-2.4L8.6,12.9a.68.68,0,0,1,.4-.6.46.46,0,0,1,.5.4h0L10.9,24a1.72,1.72,0,0,0,1.7,1.5h6.8A1.73,1.73,0,0,0,21.1,24l1.3-11.2c0-.3.3-.5.5-.4h0c.3,0,.5.3.4.5h0L22,24A2.63,2.63,0,0,1,19.4,26.5Z"/><line class="cls-3" x1="19.1" y1="14" x2="18.6" y2="20"/><line class="cls-3" x1="16" y1="14" x2="16" y2="20"/><line class="cls-3" x1="12.9" y1="14" x2="13.4" y2="20"/></svg>