<svg id="Layer_2" data-name="Layer 2" xmlns="http://www.w3.org/2000/svg" viewBox="0 0 44 44"><defs><style>.cls-1{fill:#666;}.cls-2{fill:none;stroke:#666;stroke-linecap:round;stroke-miterlimit:10;stroke-width:2px;}</style></defs><title>Star</title><path class="cls-1" d="M38,19.74a1.43,1.43,0,0,0-.83-2.55l-9.07-1.32a1.16,1.16,0,0,1-.68-.49L23.34,7.15a1.44,1.44,0,0,0-2.68,0L16.6,15.38a1.16,1.16,0,0,1-.68.49L6.85,17.19A1.43,1.43,0,0,0,6,19.74l.93.9a4.46,4.46,0,0,1,1.9-.93L8.15,19l8.06-1.17a3.14,3.14,0,0,0,2.19-1.59L22,9l3.61,7.3a3.08,3.08,0,0,0,2.18,1.59L35.85,19,30,24.71a3.1,3.1,0,0,0-.84,2.57l1.38,8-7.21-3.8a3.12,3.12,0,0,0-2.7,0L13.44,35.3l1.07-6.23h0a5.25,5.25,0,0,1-1.74-.28c-.09.06-.17.13-.26.18l-1.21,7a1.52,1.52,0,0,0,.54,1.54,1.35,1.35,0,0,0,.8.25,1.75,1.75,0,0,0,.83-.22l8.12-4.27a1.21,1.21,0,0,1,.84,0l8.12,4.27A1.42,1.42,0,0,0,32.7,36l-1.55-9a1.22,1.22,0,0,1,.26-.8Z"/><line class="cls-2" x1="13.69" y1="27.96" x2="12.45" y2="35.15"/><line class="cls-2" x1="6.9" y1="19.2" x2="8.15" y2="20.42"/></svg>