<svg id="Layer_1" data-name="Layer 1" xmlns="http://www.w3.org/2000/svg" viewBox="0 0 1024 1024"><defs><style>.cls-1{fill:#ffcd00;}.cls-1,.cls-2,.cls-3,.cls-4{stroke:#000;stroke-miterlimit:10;}.cls-1,.cls-3{stroke-width:28px;}.cls-2,.cls-3,.cls-4{fill:none;stroke-linecap:round;}.cls-2{stroke-width:20px;}.cls-4{stroke-width:18px;}</style></defs><title>memoit</title><path class="cls-1" d="M242,413.42c0-133.13,120.88-270,270-270s270,135,270,270S647,599,647,666.54H377C377,599,242,546.54,242,413.42Z"/><path class="cls-1" d="M647,664.67H377v22.5h0a22.57,22.57,0,0,0,22.5,22.5h225a22.57,22.57,0,0,0,22.5-22.5h0Z"/><line class="cls-2" x1="401.01" y1="407.3" x2="401.01" y2="450.14"/><line class="cls-2" x1="438.01" y1="371.59" x2="438.01" y2="485.84"/><line class="cls-2" x1="475" y1="393.01" x2="475" y2="464.42"/><line class="cls-2" x1="512" y1="407.3" x2="512" y2="450.14"/><line class="cls-2" x1="549" y1="350.17" x2="549" y2="507.26"/><line class="cls-2" x1="585.99" y1="378.73" x2="585.99" y2="478.7"/><line class="cls-2" x1="672.31" y1="428.72" x2="647.65" y2="428.72"/><line class="cls-2" x1="622.99" y1="400.15" x2="622.99" y2="457.28"/><line class="cls-2" x1="376.35" y1="428.72" x2="351.69" y2="428.72"/><line class="cls-3" x1="488.03" y1="760.04" x2="611.56" y2="760.04"/><line class="cls-3" x1="491.14" y1="813.17" x2="593" y2="813.17"/><line class="cls-3" x1="491.14" y1="865.18" x2="564.88" y2="865.18"/><line class="cls-4" x1="393" y1="788.59" x2="408.06" y2="811.71"/><line class="cls-4" x1="450" y1="760.2" x2="408.06" y2="811.71"/><circle cx="428.86" cy="866.05" r="14.53"/></svg>