<?xml version="1.0" encoding="utf-8"?>
<!-- Generator: Adobe Illustrator 22.1.0, SVG Export Plug-In . SVG Version: 6.00 Build 0)  -->
<svg version="1.1" id="Layer_1" xmlns="http://www.w3.org/2000/svg" xmlns:xlink="http://www.w3.org/1999/xlink" x="0px" y="0px"
	 viewBox="0 0 44 44" style="enable-background:new 0 0 44 44;" xml:space="preserve">
<style type="text/css">
	.st0{fill:none;stroke:#666666;stroke-width:2;stroke-miterlimit:10;}
	.st1{fill:#666666;}
</style>
<title>CamLibrary</title>
<path class="st0" d="M37,35.5V12.2c0-0.8-0.7-1.5-1.5-1.5H12.2c-0.8,0-1.5,0.7-1.5,1.5l0,0v23.2c0,0.8,0.7,1.5,1.5,1.5h23.2
	C36.3,37,37,36.3,37,35.5z M19.8,14.9c1.7,0,3,1.3,3.1,2.9c0,1.7-1.3,3-2.9,3.1c-1.7,0-3-1.3-3.1-2.9c0,0,0,0,0-0.1v0
	C16.9,16.2,18.2,14.9,19.8,14.9C19.8,14.8,19.8,14.8,19.8,14.9L19.8,14.9L19.8,14.9z M34,32.9H14.5c-0.3,0-0.6-0.3-0.6-0.6
	c0,0,0,0,0,0c0-0.1,0.1-0.2,0.1-0.3l6.5-8.4c0.2-0.2,0.5-0.3,0.7-0.1c0,0,0.1,0.1,0.1,0.1l2.6,3.4l4.8-8.7c0.1-0.3,0.5-0.4,0.7-0.2
	l0,0c0.1,0.1,0.2,0.2,0.3,0.4l4.7,13.8c0.1,0.3,0,0.7-0.3,0.8C34.1,32.8,34,32.9,34,32.9z"/>
<path class="st1" d="M7,8.9v22.5c0,1,0.8,1.9,1.9,1.9V10.8c0-1,0.8-1.9,1.8-1.9c0,0,0,0,0,0h22.5c0-1-0.8-1.9-1.9-1.9H8.9
	C7.8,7,7,7.8,7,8.9L7,8.9z"/>
</svg>
