<?xml version="1.0" encoding="utf-8"?>
<!-- Generator: Adobe Illustrator 22.1.0, SVG Export Plug-In . SVG Version: 6.00 Build 0)  -->
<svg version="1.1" id="Camera" xmlns="http://www.w3.org/2000/svg" xmlns:xlink="http://www.w3.org/1999/xlink" x="0px" y="0px"
	 viewBox="0 0 44 44" style="enable-background:new 0 0 44 44;" xml:space="preserve">
<style type="text/css">
	.st0{fill:none;stroke:#666666;stroke-width:2;stroke-linecap:round;stroke-linejoin:round;}
	.st1{fill:none;stroke:#666666;stroke-linecap:round;stroke-linejoin:round;}
	.st2{fill:none;stroke:#666666;stroke-width:2;stroke-miterlimit:10;}
	.st3{fill:none;stroke:#666666;stroke-miterlimit:10;}
</style>
<title>CameraBtn</title>
<polygon class="st0" points="29.2,12.7 14.8,12.7 17,8.5 27,8.5 "/>
<line class="st1" x1="8.2" y1="10.3" x2="10.6" y2="10.3"/>
<path class="st2" d="M35.2,12.7H8.8c-2.7,0-4.8,2.1-4.8,4.8l0,0v13.2c0,2.7,2.1,4.8,4.8,4.8h26.4c2.7,0,4.8-2.1,4.8-4.8V17.5
	C40,14.8,37.9,12.7,35.2,12.7z M22,31.6c-4.3,0-7.8-3.5-7.8-7.8S17.7,16,22,16c4.3,0,7.8,3.5,7.8,7.8l0,0
	C29.8,28.1,26.3,31.6,22,31.6z M35.8,18.1h-2.4c-0.7,0-1.2-0.5-1.2-1.2c0-0.7,0.5-1.2,1.2-1.2h2.4c0.7,0,1.2,0.5,1.2,1.2
	C37,17.6,36.5,18.1,35.8,18.1C35.8,18.1,35.8,18.1,35.8,18.1z"/>
<circle class="st3" cx="22" cy="23.8" r="4.2"/>
</svg>
