<?xml version="1.0" encoding="utf-8"?>
<!-- Generator: Adobe Illustrator 22.1.0, SVG Export Plug-In . SVG Version: 6.00 Build 0)  -->
<svg version="1.1" id="Layer_3" xmlns="http://www.w3.org/2000/svg" xmlns:xlink="http://www.w3.org/1999/xlink" x="0px" y="0px"
	 viewBox="0 0 44 44" style="enable-background:new 0 0 44 44;" xml:space="preserve">
<style type="text/css">
	.st0{fill:none;stroke:#666666;stroke-miterlimit:10;}
</style>
<title>ColorPicker</title>
<path class="st0" d="M18.8,6.3C12.5,7.6,7.6,12.5,6.3,18.7C4,30.4,14.6,39.1,22.5,37.9c2.2-0.5,3.5-2.6,3-4.8
	c-0.1-0.3-0.2-0.6-0.3-0.9c-1.1-2.1-0.3-4.6,1.8-5.7c0.6-0.3,1.3-0.5,2-0.5h5c2.2,0,4-1.9,4-4.1c0-8.8-7.2-16-16.1-15.9
	C20.9,6,19.8,6.1,18.8,6.3z M12,26c-1.1,0-2-0.9-2-2s0.9-2,2-2s2,0.9,2,2S13.1,26,12,26z M14,18c-1.1,0-2-0.9-2-2s0.9-2,2-2
	s2,0.9,2,2S15.1,18,14,18z M22,14c-1.1,0-2-0.9-2-2s0.9-2,2-2s2,0.9,2,2S23.1,14,22,14z M30,18c-1.1,0-2-0.9-2-2s0.9-2,2-2
	s2,0.9,2,2S31.1,18,30,18z"/>
</svg>
