<svg id="Layer_1" data-name="Layer 1" xmlns="http://www.w3.org/2000/svg" viewBox="0 0 44 44"><defs><style>.cls-1{fill:gray;}</style></defs><title>UndoBtn</title><path class="cls-1" d="M13.4,23.43a8.47,8.47,0,0,0,2.4,4.66,8.7,8.7,0,0,0,12.23,0,8.55,8.55,0,0,0-6-14.64h0A8.7,8.7,0,0,0,15.84,16L14.48,14.6A10.6,10.6,0,0,1,22,11.5h0a10.47,10.47,0,0,1,7.4,17.91,10.64,10.64,0,0,1-14.95,0,10.33,10.33,0,0,1-2.94-5.72Z"/><polygon class="cls-1" points="11.89 18.34 12.36 12.48 17.78 17.87 11.89 18.34"/></svg>