<svg id="Layer_1" data-name="Layer 1" xmlns="http://www.w3.org/2000/svg" viewBox="0 0 60 80"><defs><style>.cls-1{fill:#ffcd00;}.cls-1,.cls-2,.cls-3,.cls-4{stroke:#666;stroke-miterlimit:10;}.cls-1,.cls-2,.cls-3{stroke-width:2px;}.cls-2{fill:#ff7e79;}.cls-3{fill:#fff8d9;}.cls-4{fill:#fff;}</style></defs><title>DrawEraser</title><path class="cls-1" d="M43,81H17c-1.1,0-2-.38-2-.86V54.83H45V80.14C45,80.62,44.1,81,43,81Z"/><path class="cls-2" d="M18,5.23H42a2,2,0,0,1,2,2v14H16v-14A2,2,0,0,1,18,5.23Z"/><path class="cls-3" d="M17.06,20.91H42.94c1.09,0,2,.5,2,1.12V54.91H15.07V22C15.07,21.41,16,20.91,17.06,20.91Z"/><rect class="cls-4" x="15.5" y="27.5" width="29" height="3"/><rect class="cls-4" x="15.5" y="46.5" width="29" height="3"/></svg>