<?xml version="1.0" encoding="utf-8"?>
<!-- Generator: Adobe Illustrator 22.1.0, SVG Export Plug-In . SVG Version: 6.00 Build 0)  -->
<svg version="1.1" id="Draw" xmlns="http://www.w3.org/2000/svg" xmlns:xlink="http://www.w3.org/1999/xlink" x="0px" y="0px"
	 viewBox="0 0 44 44" style="enable-background:new 0 0 44 44;" xml:space="preserve">
<style type="text/css">
	.st0{fill:none;stroke:#666666;stroke-width:2;stroke-linecap:round;stroke-miterlimit:10;}
	.st1{fill:#666666;stroke:#666666;stroke-linecap:round;stroke-miterlimit:10;}
	.st2{fill:#666666;}
	.st3{fill:#666666;stroke:#666666;stroke-width:0.5;stroke-miterlimit:10;}
</style>
<title>DrawBtn</title>
<polygon class="st0" points="23,28.4 25.9,30.1 35.4,13.6 32.4,11.9 "/>
<path class="st1" d="M36.4,12l0.4-0.7c0.3-0.5,0.2-1.1-0.1-1.3L35,9c-0.3-0.2-0.9,0-1.2,0.5l-0.4,0.8L36.4,12z"/>
<path class="st2" d="M7.1,15.6c2.5,1.1,4.8,2.5,7,4.1c1.1,0.8,2.1,1.8,2.9,2.9c0.5,0.6,0.8,1.4,0.8,2.2c0,0.9-0.4,1.7-1.1,2.3
	c-0.6,0.5-1.3,0.9-2,1.1c-0.6,0.2-1.1,0.5-1.6,0.8c-0.4,0.3-0.7,0.7-0.7,0.8c0.1,0.3,0.3,0.6,0.5,0.9c0.9,0.9,1.9,1.6,2.9,2.2l3.4,2
	l-0.1,0.2c-1.4-0.2-2.7-0.5-4-1c-1.4-0.5-2.6-1.2-3.7-2.1c-0.3-0.3-0.6-0.6-0.8-1c-0.3-0.5-0.4-1-0.4-1.5c0-0.3,0.1-0.6,0.2-0.8
	c0.1-0.2,0.3-0.4,0.4-0.6c0.3-0.3,0.6-0.6,1-0.8c0.6-0.4,1.3-0.6,2-0.8c0.5-0.2,1.1-0.4,1.5-0.7c0.4-0.2,0.6-0.6,0.7-1.1
	c0-0.5-0.2-1.1-0.5-1.5c-0.7-1.1-1.5-2-2.5-2.8c-1.9-1.7-4-3.2-6.2-4.5L7.1,15.6z"/>
<path class="st3" d="M21.9,29.7l-0.5,4.8l3.9-2.9L21.9,29.7z"/>
</svg>
