<svg id="Layer_1" data-name="Layer 1" xmlns="http://www.w3.org/2000/svg" viewBox="0 0 44 44"><defs><style>.cls-1{fill:#666;}</style></defs><title>Text</title><path class="cls-1" d="M15.81,11.56h2.56l9.77,20.88H25l-2.34-5.13H11.14L8.77,32.44H5.69ZM17,14.74H17L12.21,25h9.37Z"/><path class="cls-1" d="M36.27,27.07l0-.23c.23-1.53-.49-2.3-2.14-2.3A5.23,5.23,0,0,0,31,25.59l-.69-.89a5.29,5.29,0,0,1,1.86-1,8.42,8.42,0,0,1,2.46-.33A4.46,4.46,0,0,1,36,23.6a2.55,2.55,0,0,1,1.05.58,2.16,2.16,0,0,1,.63,1,2.91,2.91,0,0,1,.07,1.4l-.6,4A9,9,0,0,0,37,31.59c0,.37,0,.68,0,.92H35.65a4.13,4.13,0,0,1,0-.7c0-.25.05-.5.09-.74h0a4.43,4.43,0,0,1-1.63,1.28,5.15,5.15,0,0,1-2.08.39,4.93,4.93,0,0,1-1.23-.16,2.72,2.72,0,0,1-1-.5,2.15,2.15,0,0,1-.62-.81,2,2,0,0,1-.1-1.13,2.71,2.71,0,0,1,.87-1.7,4.73,4.73,0,0,1,1.68-.92,9.09,9.09,0,0,1,2-.38c.7-.05,1.35-.07,1.93-.07Zm-.85,1c-.35,0-.79,0-1.31.05a8.67,8.67,0,0,0-1.54.23,4,4,0,0,0-1.33.56,1.48,1.48,0,0,0-.68,1,1.31,1.31,0,0,0,.08.75,1.23,1.23,0,0,0,.45.51,2,2,0,0,0,.7.28,3.75,3.75,0,0,0,.82.09A3.82,3.82,0,0,0,34,31.37a3.22,3.22,0,0,0,1-.61,3.61,3.61,0,0,0,.68-.91A4.24,4.24,0,0,0,36,28.74l.11-.65Z"/></svg>