<svg id="Layer_5" data-name="Layer 5" xmlns="http://www.w3.org/2000/svg" viewBox="0 0 96 96"><defs><style>.cls-1,.cls-2,.cls-3{fill:none;stroke:#666;stroke-miterlimit:10;}.cls-1,.cls-2{stroke-width:3px;}.cls-2,.cls-3{stroke-linecap:round;}.cls-3{stroke-width:5px;}</style></defs><title>RecordBtn</title><circle class="cls-1" cx="48" cy="48" r="45"/><path class="cls-2" d="M68.31,47.61a20.31,20.31,0,0,1-40.62,0"/><line class="cls-2" x1="48" y1="68.31" x2="48" y2="74.57"/><line class="cls-3" x1="41.44" y1="76.13" x2="54.56" y2="76.13"/><path class="cls-1" d="M48,19.88h0a12.5,12.5,0,0,1,12.51,12.5h0V48A12.51,12.51,0,0,1,48,60.51h0A12.51,12.51,0,0,1,35.49,48h0V32.38A12.5,12.5,0,0,1,48,19.88Z"/><line class="cls-2" x1="45.19" y1="30.53" x2="54.56" y2="30.53"/><line class="cls-2" x1="45.19" y1="37.11" x2="54.56" y2="37.11"/><line class="cls-2" x1="45.19" y1="43.61" x2="54.56" y2="43.61"/></svg>