<svg id="Layer_1" data-name="Layer 1" xmlns="http://www.w3.org/2000/svg" viewBox="0 0 32 32"><defs><style>.cls-1,.cls-3{fill:none;stroke-linecap:round;}.cls-1,.cls-2,.cls-3{stroke:#666;stroke-miterlimit:10;}.cls-1{stroke-width:2px;}.cls-2{fill:#666;}</style></defs><title>Bin</title><path class="cls-1" d="M5.5,8.8A45.86,45.86,0,0,1,16,7.51,45.86,45.86,0,0,1,26.5,8.8"/><path class="cls-1" d="M13,5.5A1.54,1.54,0,0,1,14.46,4h3A1.55,1.55,0,0,1,19,5.5"/><path class="cls-2" d="M20,28H12a3.27,3.27,0,0,1-3.16-2.81L7.36,12.08a.81.81,0,0,1,.47-.71.55.55,0,0,1,.58.48h0L10,25.07a2,2,0,0,0,2,1.76h8a2,2,0,0,0,2-1.76L23.5,12c0-.35.35-.59.58-.47h0a.47.47,0,0,1,.48.59h0l-1.5,13A3.09,3.09,0,0,1,20,28Z"/><line class="cls-3" x1="19.63" y1="13.37" x2="19.04" y2="20.39"/><line class="cls-3" x1="16" y1="13.37" x2="16" y2="20.39"/><line class="cls-3" x1="12.37" y1="13.37" x2="12.96" y2="20.39"/></svg>