<svg id="Layer_2" data-name="Layer 2" xmlns="http://www.w3.org/2000/svg" viewBox="0 0 44 44"><defs><style>.cls-1{fill:#666;}</style></defs><title>Edit</title><path class="cls-1" d="M26.91,25.82l1.37-1.38a.36.36,0,0,1,.6.26v6.24A2.07,2.07,0,0,1,26.81,33H11.69a2.07,2.07,0,0,1-2.07-2.06V15.82a2.07,2.07,0,0,1,2.07-2.07H23.44a.35.35,0,0,1,.34.36.33.33,0,0,1-.1.23l-1.37,1.38a.37.37,0,0,1-.24.1H11.69V30.94H26.81V26.06A.35.35,0,0,1,26.91,25.82Zm6.73-8.67L22.35,28.44l-3.88.43a1.79,1.79,0,0,1-2-1.58,2.41,2.41,0,0,1,0-.38L16.93,23l11.3-11.28a2.51,2.51,0,0,1,3.55,0l1.86,1.85A2.52,2.52,0,0,1,33.64,17.15Zm-4.25,1.33L26.9,16l-8,8-.32,2.8,2.81-.3Zm2.79-3.42L30.33,13.2a.45.45,0,0,0-.63,0l-1.34,1.33L30.86,17l1.33-1.32A.47.47,0,0,0,32.18,15.06Z"/></svg>