<svg id="Layer_1" data-name="Layer 1" xmlns="http://www.w3.org/2000/svg" viewBox="0 0 44 44"><defs><style>.cls-1{fill:#666;}.cls-2{fill:none;stroke:#666;stroke-miterlimit:10;stroke-width:3px;}</style></defs><title>StrikeThrough</title><path class="cls-1" d="M27.49,13.76a4.48,4.48,0,0,0-2-1.79,6.42,6.42,0,0,0-2.62-.55,7.68,7.68,0,0,0-2,.25,6.13,6.13,0,0,0-1.75.75,3.72,3.72,0,0,0-1.24,1.34,3.9,3.9,0,0,0-.47,1.94,4,4,0,0,0,.27,1.53,3.24,3.24,0,0,0,.88,1.21,6.49,6.49,0,0,0,1.66,1,21,21,0,0,0,2.55.94c1,.31,1.94.65,2.87,1a9.3,9.3,0,0,1,2.44,1.37,6,6,0,0,1,1.7,2.07,6.8,6.8,0,0,1,.63,3.11,6.91,6.91,0,0,1-.76,3.31,6.81,6.81,0,0,1-2,2.32,8.52,8.52,0,0,1-2.86,1.37,12.48,12.48,0,0,1-3.35.45,12,12,0,0,1-2.23-.2,10.3,10.3,0,0,1-2.14-.61,8.15,8.15,0,0,1-1.93-1.08,6.56,6.56,0,0,1-1.55-1.64l2.6-2.12a5.3,5.3,0,0,0,2.3,2.12,7.1,7.1,0,0,0,5.09.44,6.29,6.29,0,0,0,1.79-.85,4.51,4.51,0,0,0,1.29-1.39,3.53,3.53,0,0,0,.51-1.9,4.1,4.1,0,0,0-.4-1.93A3.53,3.53,0,0,0,25.55,25a9.74,9.74,0,0,0-2.09-1l-2.95-1A18.38,18.38,0,0,1,18,22a7.61,7.61,0,0,1-2-1.37,5.64,5.64,0,0,1-1.33-1.94A6.78,6.78,0,0,1,14.17,16a6.59,6.59,0,0,1,2.66-5.49,8.83,8.83,0,0,1,2.78-1.38,10.85,10.85,0,0,1,3.24-.47,11.27,11.27,0,0,1,3.94.66A7.67,7.67,0,0,1,30,11.6Z"/><line class="cls-2" x1="10" y1="22" x2="34" y2="22"/></svg>